<?xml version="1.0" encoding="utf-8"?>
<!-- Generator: Adobe Illustrator 27.5.0, SVG Export Plug-In . SVG Version: 6.00 Build 0)  -->
<svg version="1.1" xmlns="http://www.w3.org/2000/svg" xmlns:xlink="http://www.w3.org/1999/xlink" x="0px" y="0px"
	 viewBox="0 0 500 500" style="enable-background:new 0 0 500 500;" xml:space="preserve">
<g id="Background">
	<rect style="fill:#FFFFFF;" width="500" height="500"/>
</g>
<g id="Objects">
	<g>
		<g>
			<g style="opacity:0.8;">
				<polygon style="fill:#FF00FF;" points="113.882,326.122 127.955,326.122 127.955,318.715 105.734,318.715 105.734,329.767 
					113.882,329.767 				"/>
				<polygon style="fill:#FF00FF;" points="105.734,370.563 127.955,370.563 127.955,363.156 113.882,363.156 113.882,356.672 
					105.734,356.672 				"/>
				<polygon style="fill:#FF00FF;" points="113.882,347.972 125.066,347.972 125.066,340.566 113.882,340.566 113.882,333.669 
					105.734,333.669 105.734,352.769 113.882,352.769 				"/>
				<path style="fill:#FF00FF;" d="M155.727,345.232c3.629-1.703,5.332-5.185,5.332-10.517v-1.046h-8.147v2.897
					c0,4.148-1.852,5.481-4.889,5.481h-3.184v-8.378h-8.147v19.101h8.147v-3.315h2.815c2.694,0,4.286,0.948,4.956,3.315h8.29
					C160.367,349.169,158.858,346.542,155.727,345.232z"/>
				<path style="fill:#FF00FF;" d="M144.839,326.122h3.925c2.399,0,3.659,1.144,4.023,3.644h8.247
					c-0.264-7.404-3.921-11.051-12.047-11.051h-12.294v11.051h8.147V326.122z"/>
				<path style="fill:#FF00FF;" d="M152.986,364.193c0,4.222,0.297,5.037,0.741,6.37h8.296c-0.814-1.926-0.888-3.777-0.888-6.296
					v-7.596h-8.148V364.193z"/>
				<rect x="136.691" y="356.672" style="fill:#FF00FF;" width="8.147" height="13.892"/>
				<path style="fill:#FF00FF;" d="M178.314,326.122h3.925c2.399,0,3.659,1.144,4.023,3.644h8.246
					c-0.264-7.404-3.921-11.051-12.047-11.051h-12.294v11.051h8.147V326.122z"/>
				<path style="fill:#FF00FF;" d="M189.202,345.232c3.629-1.703,5.332-5.185,5.332-10.517v-1.046h-8.147v2.897
					c0,4.148-1.852,5.481-4.889,5.481h-3.184v-8.378h-8.147v19.101h8.147v-3.315h2.815c2.694,0,4.286,0.948,4.956,3.315h8.289
					C193.842,349.169,192.334,346.542,189.202,345.232z"/>
				<path style="fill:#FF00FF;" d="M186.461,364.193c0,4.222,0.297,5.037,0.741,6.37h8.296c-0.814-1.926-0.888-3.777-0.888-6.296
					v-7.596h-8.148V364.193z"/>
				<rect x="170.167" y="356.672" style="fill:#FF00FF;" width="8.147" height="13.892"/>
				<rect x="219.566" y="333.669" style="fill:#FF00FF;" width="8.147" height="19.101"/>
				<path style="fill:#FF00FF;" d="M219.566,358.638c0,3.704-1.63,5.111-4.222,5.111c-2.592,0-4.222-1.407-4.222-5.111v-1.966
					h-8.147v1.448c0,8.296,4.37,13.036,12.369,13.036c8,0,12.369-4.74,12.369-13.036v-1.448h-8.147V358.638z"/>
				<rect x="202.975" y="333.669" style="fill:#FF00FF;" width="8.147" height="19.101"/>
				<path style="fill:#FF00FF;" d="M215.344,325.53c2.372,0,3.922,1.201,4.171,4.237h8.151c-0.471-7.429-4.783-11.643-12.322-11.643
					c-7.539,0-11.851,4.214-12.322,11.643h8.151C211.423,326.73,212.972,325.53,215.344,325.53z"/>
				<path style="fill:#FF00FF;" d="M255.708,345.232c3.629-1.703,5.332-5.185,5.332-10.517v-1.046h-8.147v2.897
					c0,4.148-1.852,5.481-4.889,5.481h-3.185v-8.378h-8.147v19.101h8.147v-3.315h2.815c2.694,0,4.286,0.948,4.956,3.315h8.289
					C260.348,349.169,258.84,346.542,255.708,345.232z"/>
				<rect x="236.673" y="356.672" style="fill:#FF00FF;" width="8.147" height="13.892"/>
				<path style="fill:#FF00FF;" d="M252.967,364.193c0,4.222,0.297,5.037,0.74,6.37h8.296c-0.814-1.926-0.888-3.777-0.888-6.296
					v-7.596h-8.148V364.193z"/>
				<path style="fill:#FF00FF;" d="M244.82,326.122h3.925c2.399,0,3.659,1.144,4.023,3.644h8.246
					c-0.264-7.404-3.921-11.051-12.047-11.051h-12.294v11.051h8.147V326.122z"/>
				<g>
					<rect x="106.622" y="352.769" style="fill:#FF00FF;" width="8.148" height="3.902"/>
					<rect x="105.135" y="329.767" style="fill:#FF00FF;" width="8.148" height="3.902"/>
					<rect x="137.579" y="352.769" style="fill:#FF00FF;" width="8.147" height="3.902"/>
					<rect x="136.093" y="329.767" style="fill:#FF00FF;" width="8.147" height="3.902"/>
					<path style="fill:#FF00FF;" d="M152.313,331.455v2.214h8.147v-3.028c0-0.301-0.016-0.585-0.026-0.874h-8.247
						C152.263,330.278,152.313,330.826,152.313,331.455z"/>
					<path style="fill:#FF00FF;" d="M161.787,352.769h-8.29c0.251,0.886,0.376,1.965,0.376,3.277v0.626h8.148v-0.404
						C162.022,355.018,161.946,353.852,161.787,352.769z"/>
					<rect x="171.055" y="352.769" style="fill:#FF00FF;" width="8.147" height="3.902"/>
					<path style="fill:#FF00FF;" d="M195.262,352.769h-8.289c0.251,0.886,0.376,1.965,0.376,3.277v0.626h8.148v-0.404
						C195.497,355.018,195.422,353.852,195.262,352.769z"/>
					<rect x="169.568" y="329.767" style="fill:#FF00FF;" width="8.147" height="3.902"/>
					<path style="fill:#FF00FF;" d="M185.789,331.455v2.214h8.147v-3.028c0-0.301-0.016-0.585-0.026-0.874h-8.247
						C185.738,330.278,185.789,330.826,185.789,331.455z"/>
					<rect x="203.863" y="352.769" style="fill:#FF00FF;" width="8.147" height="3.902"/>
					<rect x="220.454" y="352.769" style="fill:#FF00FF;" width="8.147" height="3.902"/>
					<path style="fill:#FF00FF;" d="M218.968,330.64v3.028h8.147v-2.509c0-0.477-0.018-0.939-0.047-1.393h-8.151
						C218.94,330.049,218.968,330.325,218.968,330.64z"/>
					<path style="fill:#FF00FF;" d="M202.377,333.669h8.147v-3.028c0-0.315,0.028-0.591,0.051-0.874h-8.151
						c-0.029,0.453-0.047,0.916-0.047,1.393V333.669z"/>
					<path style="fill:#FF00FF;" d="M252.295,331.455v2.214h8.147v-3.028c0-0.301-0.015-0.585-0.026-0.874h-8.247
						C252.244,330.278,252.295,330.826,252.295,331.455z"/>
					<rect x="236.074" y="329.767" style="fill:#FF00FF;" width="8.147" height="3.902"/>
					<rect x="237.561" y="352.769" style="fill:#FF00FF;" width="8.147" height="3.902"/>
					<path style="fill:#FF00FF;" d="M261.768,352.769h-8.289c0.251,0.886,0.376,1.965,0.376,3.277v0.626h8.148v-0.404
						C262.003,355.018,261.927,353.852,261.768,352.769z"/>
				</g>
				<rect x="284.324" y="329.767" style="fill:#FF00FF;" width="8.148" height="3.902"/>
				<path style="fill:#FF00FF;" d="M293.476,326.122h3.851c2.276,0,3.637,0.916,3.936,3.644h8.139
					c-0.546-7.167-4.526-11.051-12.075-11.051h-11.999v11.051h8.148V326.122z"/>
				<path style="fill:#FF00FF;" d="M297.328,351.083c8.148,0,12.147-4.518,12.147-12.814v-4.601h-8.147v5.119
					c0,3.703-1.407,4.888-4,4.888h-3.851v-10.008h-8.148v19.101h8.148v-1.686H297.328z"/>
				<rect x="285.328" y="356.672" style="fill:#FF00FF;" width="8.148" height="13.892"/>
				<rect x="286.167" y="352.769" style="fill:#FF00FF;" width="8.148" height="3.902"/>
				<path style="fill:#FF00FF;" d="M300.323,331.011v2.658h8.147v-2.139c0-0.61-0.029-1.194-0.072-1.763h-8.139
					C300.301,330.146,300.323,330.558,300.323,331.011z"/>
				<polygon style="fill:#FF00FF;" points="314.212,370.563 321.693,370.563 323.1,361.157 333.099,361.157 334.507,370.563 
					342.729,370.563 340.506,356.672 316.434,356.672 				"/>
				<polygon style="fill:#FF00FF;" points="326.195,333.669 326.779,329.767 319.735,329.767 319.11,333.669 				"/>
				<polygon style="fill:#FF00FF;" points="320.115,333.669 317.059,352.769 324.339,352.769 327.199,333.669 				"/>
				<polygon style="fill:#FF00FF;" points="327.922,333.669 335.821,333.669 335.197,329.767 327.338,329.767 				"/>
				<polygon style="fill:#FF00FF;" points="328.063,327.9 328.342,329.767 336.201,329.767 334.433,318.715 322.507,318.715 
					320.739,329.767 327.784,329.767 				"/>
				<polygon style="fill:#FF00FF;" points="332.625,352.769 332.827,354.12 324.976,354.12 325.178,352.769 317.897,352.769 
					317.273,356.672 341.345,356.672 340.72,352.769 				"/>
				<polygon style="fill:#FF00FF;" points="328.927,333.669 331.786,352.769 339.882,352.769 336.826,333.669 				"/>
				<rect x="349.54" y="333.669" style="fill:#FF00FF;" width="8.147" height="19.101"/>
				<path style="fill:#FF00FF;" d="M348.535,333.669h8.147v-3.028c0-0.315,0.028-0.591,0.051-0.874h-8.154
					c-0.027,0.453-0.045,0.916-0.045,1.393V333.669z"/>
				<path style="fill:#FF00FF;" d="M366.131,358.638c0,3.704-1.63,5.037-4.222,5.037c-2.592,0-4.222-1.333-4.222-5.037v-1.966
					h-8.147v1.448c0,8.296,4.147,13.036,12.147,13.036c8,0,12.147-4.74,12.147-13.036v-1.448h-7.702V358.638z"/>
				<rect x="366.97" y="352.769" style="fill:#FF00FF;" width="7.702" height="3.902"/>
				<rect x="366.131" y="333.669" style="fill:#FF00FF;" width="7.702" height="2.527"/>
				<rect x="350.379" y="352.769" style="fill:#FF00FF;" width="8.147" height="3.902"/>
				<path style="fill:#FF00FF;" d="M365.127,330.64v3.028h7.703v-2.509c0-0.477-0.017-0.939-0.045-1.393h-7.709
					C365.099,330.049,365.127,330.325,365.127,330.64z"/>
				<polygon style="fill:#FF00FF;" points="362.427,341.676 362.427,349.083 366.131,349.083 366.131,352.769 373.834,352.769 
					373.834,341.676 				"/>
				<path style="fill:#FF00FF;" d="M361.909,325.53c2.372,0,3.921,1.201,4.171,4.237h7.709c-0.449-7.429-4.563-11.643-12.102-11.643
					c-7.539,0-11.653,4.214-12.102,11.643h8.154C357.988,326.73,359.537,325.53,361.909,325.53z"/>
				<polygon style="fill:#FF00FF;" points="382.792,370.563 405.012,370.563 405.012,363.156 390.94,363.156 390.94,356.672 
					382.792,356.672 				"/>
				<rect x="381.787" y="329.767" style="fill:#FF00FF;" width="8.148" height="3.902"/>
				<polygon style="fill:#FF00FF;" points="390.94,326.122 405.012,326.122 405.012,318.715 382.792,318.715 382.792,329.767 
					390.94,329.767 				"/>
				<polygon style="fill:#FF00FF;" points="382.792,352.769 390.94,352.769 390.94,347.972 402.124,347.972 402.124,340.566 
					390.94,340.566 390.94,333.669 382.792,333.669 				"/>
				<rect x="383.631" y="352.769" style="fill:#FF00FF;" width="8.148" height="3.902"/>
				<polygon style="fill:#FF00FF;" points="120.74,206.762 95.156,206.762 92.816,212.296 118.404,212.296 				"/>
				<polygon style="fill:#FF00FF;" points="140.501,226.599 112.368,226.599 116.536,216.723 90.944,216.723 86.768,226.599 
					86.768,251.945 140.501,251.945 140.501,284.135 167.876,284.135 167.876,251.945 181.055,251.945 181.055,226.599 
					167.876,226.599 167.876,216.723 140.501,216.723 				"/>
				<rect x="140.501" y="206.762" style="fill:#FF00FF;" width="27.374" height="5.534"/>
				<rect x="204.12" y="206.762" style="fill:#FF00FF;" width="27.88" height="5.534"/>
				<rect x="260.895" y="206.762" style="fill:#FF00FF;" width="27.88" height="5.534"/>
				<path style="fill:#FF00FF;" d="M260.895,243.328c0,12.673-5.576,17.489-14.448,17.489c-8.87,0-14.448-4.816-14.448-17.489
					v-26.605h-27.88v24.83c0,28.387,14.954,44.609,42.327,44.609c27.374,0,42.328-16.221,42.328-44.609v-24.83h-27.88V243.328z"/>
				<rect x="366.586" y="206.762" style="fill:#FF00FF;" width="27.374" height="5.534"/>
				<path style="fill:#FF00FF;" d="M142.405,216.723h27.375v-4.427h-27.375V216.723z M206.023,216.723h27.88v-4.427h-27.88V216.723z
					 M92.848,216.723h25.592l1.868-4.427H94.72L92.848,216.723z M368.49,212.296v4.427h27.374v-4.427H368.49z M318.933,216.723
					h25.592l1.868-4.427h-25.588L318.933,216.723z M262.798,216.723h27.88v-4.427h-27.88V216.723z"/>
				<polygon style="fill:#FF00FF;" points="366.586,226.599 338.453,226.599 342.621,216.723 317.029,216.723 312.854,226.599 
					312.854,251.945 366.586,251.945 366.586,284.135 393.961,284.135 393.961,251.945 407.14,251.945 407.14,226.599 
					393.961,226.599 393.961,216.723 366.586,216.723 				"/>
				<polygon style="fill:#FF00FF;" points="321.241,206.762 318.901,212.296 344.49,212.296 346.825,206.762 				"/>
				<path style="fill:#FF00FF;" d="M91.903,206.762h25.584l8.642-20.476h-25.568L91.903,206.762z M137.248,206.762h27.374v-20.476
					h-27.374V206.762z M200.866,206.762h27.88v-20.476h-27.88V206.762z M363.333,186.286v20.476h27.375v-20.476H363.333z
					 M317.988,206.762h25.584l8.642-20.476h-25.568L317.988,206.762z M257.642,206.762h27.88v-20.476h-27.88V206.762z"/>
				<g>
					<polygon style="fill:#FF00FF;" points="167.876,106.713 137.46,106.713 129.965,124.438 167.876,124.438 					"/>
					<polygon style="fill:#FF00FF;" points="126.455,124.438 120.469,138.597 164.366,138.597 164.366,124.438 					"/>
					<polygon style="fill:#FF00FF;" points="103.814,186.286 129.382,186.286 140.501,159.939 140.501,186.286 167.876,186.286 
						167.876,138.597 123.978,138.597 					"/>
					<path style="fill:#FF00FF;" d="M205.84,124.438c-2.116,4.125-3.595,8.861-4.429,14.159h28.382
						c2.133-6.07,6.785-8.566,13.144-8.566c6.36,0,11.012,2.495,13.144,8.566h28.382c-0.834-5.298-2.314-10.035-4.429-14.159H205.84
						z"/>
					<path style="fill:#FF00FF;" d="M204.12,149.293v36.992h27.88V147.52c0-3.588,0.462-6.526,1.304-8.923h-28.382
						C204.394,141.942,204.12,145.506,204.12,149.293z"/>
					<path style="fill:#FF00FF;" d="M260.895,147.52v38.766h27.88v-36.992c0-3.788-0.275-7.352-0.801-10.697h-28.382
						C260.433,140.994,260.895,143.932,260.895,147.52z"/>
					<path style="fill:#FF00FF;" d="M246.447,104.684c-17.936,0-30.538,6.965-37.097,19.753h74.195
						C276.985,111.65,264.383,104.684,246.447,104.684z"/>
					<polygon style="fill:#FF00FF;" points="329.899,186.286 355.467,186.286 366.586,159.939 366.586,186.286 393.961,186.286 
						393.961,138.597 350.064,138.597 					"/>
					<polygon style="fill:#FF00FF;" points="352.541,124.438 346.554,138.597 390.451,138.597 390.451,124.438 					"/>
					<polygon style="fill:#FF00FF;" points="393.961,106.713 363.545,106.713 356.05,124.438 393.961,124.438 					"/>
				</g>
			</g>
			<g style="opacity:0.8;">
				<polygon style="fill:#00FFFF;" points="106.222,326.122 120.295,326.122 120.295,318.715 98.074,318.715 98.074,329.767 
					106.222,329.767 				"/>
				<polygon style="fill:#00FFFF;" points="98.074,370.563 120.295,370.563 120.295,363.156 106.222,363.156 106.222,356.672 
					98.074,356.672 				"/>
				<polygon style="fill:#00FFFF;" points="106.222,347.972 117.406,347.972 117.406,340.566 106.222,340.566 106.222,333.669 
					98.074,333.669 98.074,352.769 106.222,352.769 				"/>
				<path style="fill:#00FFFF;" d="M148.067,345.232c3.629-1.703,5.332-5.185,5.332-10.517v-1.046h-8.147v2.897
					c0,4.148-1.852,5.481-4.889,5.481h-3.184v-8.378h-8.147v19.101h8.147v-3.315h2.815c2.694,0,4.286,0.948,4.956,3.315h8.289
					C152.707,349.169,151.199,346.542,148.067,345.232z"/>
				<path style="fill:#00FFFF;" d="M137.179,326.122h3.925c2.398,0,3.659,1.144,4.023,3.644h8.246
					c-0.264-7.404-3.921-11.051-12.047-11.051h-12.294v11.051h8.147V326.122z"/>
				<path style="fill:#00FFFF;" d="M145.326,364.193c0,4.222,0.297,5.037,0.741,6.37h8.296c-0.814-1.926-0.888-3.777-0.888-6.296
					v-7.596h-8.148V364.193z"/>
				<rect x="129.032" y="356.672" style="fill:#00FFFF;" width="8.147" height="13.892"/>
				<path style="fill:#00FFFF;" d="M170.654,326.122h3.925c2.398,0,3.659,1.144,4.023,3.644h8.247
					c-0.264-7.404-3.921-11.051-12.047-11.051h-12.294v11.051h8.147V326.122z"/>
				<path style="fill:#00FFFF;" d="M181.542,345.232c3.629-1.703,5.332-5.185,5.332-10.517v-1.046h-8.147v2.897
					c0,4.148-1.852,5.481-4.889,5.481h-3.184v-8.378h-8.147v19.101h8.147v-3.315h2.815c2.694,0,4.286,0.948,4.956,3.315h8.289
					C186.182,349.169,184.674,346.542,181.542,345.232z"/>
				<path style="fill:#00FFFF;" d="M178.801,364.193c0,4.222,0.297,5.037,0.741,6.37h8.296c-0.814-1.926-0.888-3.777-0.888-6.296
					v-7.596h-8.148V364.193z"/>
				<rect x="162.507" y="356.672" style="fill:#00FFFF;" width="8.147" height="13.892"/>
				<rect x="211.906" y="333.669" style="fill:#00FFFF;" width="8.147" height="19.101"/>
				<path style="fill:#00FFFF;" d="M211.906,358.638c0,3.704-1.63,5.111-4.222,5.111c-2.592,0-4.222-1.407-4.222-5.111v-1.966
					h-8.147v1.448c0,8.296,4.37,13.036,12.369,13.036c8,0,12.369-4.74,12.369-13.036v-1.448h-8.147V358.638z"/>
				<rect x="195.315" y="333.669" style="fill:#00FFFF;" width="8.147" height="19.101"/>
				<path style="fill:#00FFFF;" d="M207.684,325.53c2.372,0,3.921,1.201,4.171,4.237h8.151c-0.471-7.429-4.783-11.643-12.322-11.643
					c-7.54,0-11.851,4.214-12.322,11.643h8.151C203.763,326.73,205.313,325.53,207.684,325.53z"/>
				<path style="fill:#00FFFF;" d="M248.048,345.232c3.629-1.703,5.332-5.185,5.332-10.517v-1.046h-8.147v2.897
					c0,4.148-1.852,5.481-4.889,5.481h-3.184v-8.378h-8.147v19.101h8.147v-3.315h2.815c2.694,0,4.286,0.948,4.956,3.315h8.289
					C252.688,349.169,251.18,346.542,248.048,345.232z"/>
				<rect x="229.013" y="356.672" style="fill:#00FFFF;" width="8.147" height="13.892"/>
				<path style="fill:#00FFFF;" d="M245.307,364.193c0,4.222,0.297,5.037,0.74,6.37h8.296c-0.814-1.926-0.888-3.777-0.888-6.296
					v-7.596h-8.148V364.193z"/>
				<path style="fill:#00FFFF;" d="M237.16,326.122h3.925c2.399,0,3.659,1.144,4.023,3.644h8.246
					c-0.264-7.404-3.921-11.051-12.047-11.051h-12.294v11.051h8.147V326.122z"/>
				<g>
					<rect x="98.962" y="352.769" style="fill:#00FFFF;" width="8.148" height="3.902"/>
					<rect x="97.476" y="329.767" style="fill:#00FFFF;" width="8.148" height="3.902"/>
					<rect x="129.92" y="352.769" style="fill:#00FFFF;" width="8.147" height="3.902"/>
					<rect x="128.433" y="329.767" style="fill:#00FFFF;" width="8.147" height="3.902"/>
					<path style="fill:#00FFFF;" d="M144.654,331.455v2.214h8.147v-3.028c0-0.301-0.015-0.585-0.026-0.874h-8.246
						C144.603,330.278,144.654,330.826,144.654,331.455z"/>
					<path style="fill:#00FFFF;" d="M154.127,352.769h-8.289c0.251,0.886,0.376,1.965,0.376,3.277v0.626h8.148v-0.404
						C154.362,355.018,154.287,353.852,154.127,352.769z"/>
					<rect x="163.395" y="352.769" style="fill:#00FFFF;" width="8.147" height="3.902"/>
					<path style="fill:#00FFFF;" d="M187.602,352.769h-8.289c0.251,0.886,0.376,1.965,0.376,3.277v0.626h8.148v-0.404
						C187.837,355.018,187.762,353.852,187.602,352.769z"/>
					<rect x="161.908" y="329.767" style="fill:#00FFFF;" width="8.147" height="3.902"/>
					<path style="fill:#00FFFF;" d="M178.129,331.455v2.214h8.147v-3.028c0-0.301-0.015-0.585-0.026-0.874h-8.246
						C178.078,330.278,178.129,330.826,178.129,331.455z"/>
					<rect x="196.203" y="352.769" style="fill:#00FFFF;" width="8.147" height="3.902"/>
					<rect x="212.794" y="352.769" style="fill:#00FFFF;" width="8.147" height="3.902"/>
					<path style="fill:#00FFFF;" d="M211.308,330.64v3.028h8.147v-2.509c0-0.477-0.018-0.939-0.047-1.393h-8.151
						C211.28,330.049,211.308,330.325,211.308,330.64z"/>
					<path style="fill:#00FFFF;" d="M194.717,333.669h8.147v-3.028c0-0.315,0.028-0.591,0.051-0.874h-8.151
						c-0.029,0.453-0.047,0.916-0.047,1.393V333.669z"/>
					<path style="fill:#00FFFF;" d="M244.635,331.455v2.214h8.147v-3.028c0-0.301-0.015-0.585-0.026-0.874h-8.247
						C244.584,330.278,244.635,330.826,244.635,331.455z"/>
					<rect x="228.414" y="329.767" style="fill:#00FFFF;" width="8.147" height="3.902"/>
					<rect x="229.901" y="352.769" style="fill:#00FFFF;" width="8.147" height="3.902"/>
					<path style="fill:#00FFFF;" d="M254.108,352.769h-8.289c0.251,0.886,0.376,1.965,0.376,3.277v0.626h8.148v-0.404
						C254.343,355.018,254.268,353.852,254.108,352.769z"/>
				</g>
				<rect x="276.664" y="329.767" style="fill:#00FFFF;" width="8.148" height="3.902"/>
				<path style="fill:#00FFFF;" d="M285.817,326.122h3.851c2.276,0,3.637,0.916,3.936,3.644h8.139
					c-0.546-7.167-4.526-11.051-12.075-11.051h-11.999v11.051h8.148V326.122z"/>
				<path style="fill:#00FFFF;" d="M289.668,351.083c8.148,0,12.147-4.518,12.147-12.814v-4.601h-8.147v5.119
					c0,3.703-1.407,4.888-4,4.888h-3.851v-10.008h-8.148v19.101h8.148v-1.686H289.668z"/>
				<rect x="277.669" y="356.672" style="fill:#00FFFF;" width="8.148" height="13.892"/>
				<rect x="278.507" y="352.769" style="fill:#00FFFF;" width="8.148" height="3.902"/>
				<path style="fill:#00FFFF;" d="M292.663,331.011v2.658h8.147v-2.139c0-0.61-0.029-1.194-0.072-1.763h-8.139
					C292.641,330.146,292.663,330.558,292.663,331.011z"/>
				<polygon style="fill:#00FFFF;" points="306.552,370.563 314.033,370.563 315.441,361.157 325.44,361.157 326.847,370.563 
					335.069,370.563 332.846,356.672 308.775,356.672 				"/>
				<polygon style="fill:#00FFFF;" points="318.535,333.669 319.119,329.767 312.075,329.767 311.451,333.669 				"/>
				<polygon style="fill:#00FFFF;" points="312.455,333.669 309.399,352.769 316.679,352.769 319.539,333.669 				"/>
				<polygon style="fill:#00FFFF;" points="320.262,333.669 328.161,333.669 327.537,329.767 319.678,329.767 				"/>
				<polygon style="fill:#00FFFF;" points="320.403,327.9 320.683,329.767 328.541,329.767 326.773,318.715 314.848,318.715 
					313.079,329.767 320.124,329.767 				"/>
				<polygon style="fill:#00FFFF;" points="324.965,352.769 325.167,354.12 317.316,354.12 317.518,352.769 310.238,352.769 
					309.613,356.672 333.685,356.672 333.061,352.769 				"/>
				<polygon style="fill:#00FFFF;" points="321.267,333.669 324.126,352.769 332.222,352.769 329.166,333.669 				"/>
				<rect x="341.88" y="333.669" style="fill:#00FFFF;" width="8.147" height="19.101"/>
				<path style="fill:#00FFFF;" d="M340.876,333.669h8.147v-3.028c0-0.315,0.028-0.591,0.051-0.874h-8.154
					c-0.027,0.453-0.045,0.916-0.045,1.393V333.669z"/>
				<path style="fill:#00FFFF;" d="M358.471,358.638c0,3.704-1.63,5.037-4.222,5.037c-2.592,0-4.222-1.333-4.222-5.037v-1.966
					h-8.147v1.448c0,8.296,4.147,13.036,12.147,13.036c8,0,12.147-4.74,12.147-13.036v-1.448h-7.703V358.638z"/>
				<rect x="359.31" y="352.769" style="fill:#00FFFF;" width="7.703" height="3.902"/>
				<rect x="358.471" y="333.669" style="fill:#00FFFF;" width="7.702" height="2.527"/>
				<rect x="342.719" y="352.769" style="fill:#00FFFF;" width="8.147" height="3.902"/>
				<path style="fill:#00FFFF;" d="M357.467,330.64v3.028h7.702v-2.509c0-0.477-0.017-0.939-0.045-1.393h-7.709
					C357.439,330.049,357.467,330.325,357.467,330.64z"/>
				<polygon style="fill:#00FFFF;" points="354.768,341.676 354.768,349.083 358.471,349.083 358.471,352.769 366.174,352.769 
					366.174,341.676 				"/>
				<path style="fill:#00FFFF;" d="M354.249,325.53c2.372,0,3.922,1.201,4.171,4.237h7.709c-0.449-7.429-4.563-11.643-12.102-11.643
					c-7.54,0-11.654,4.214-12.102,11.643h8.154C350.328,326.73,351.878,325.53,354.249,325.53z"/>
				<polygon style="fill:#00FFFF;" points="375.132,370.563 397.353,370.563 397.353,363.156 383.28,363.156 383.28,356.672 
					375.132,356.672 				"/>
				<rect x="374.128" y="329.767" style="fill:#00FFFF;" width="8.148" height="3.902"/>
				<polygon style="fill:#00FFFF;" points="383.28,326.122 397.353,326.122 397.353,318.715 375.132,318.715 375.132,329.767 
					383.28,329.767 				"/>
				<polygon style="fill:#00FFFF;" points="375.132,352.769 383.28,352.769 383.28,347.972 394.464,347.972 394.464,340.566 
					383.28,340.566 383.28,333.669 375.132,333.669 				"/>
				<rect x="375.971" y="352.769" style="fill:#00FFFF;" width="8.148" height="3.902"/>
				<polygon style="fill:#00FFFF;" points="113.08,206.762 87.496,206.762 85.156,212.296 110.745,212.296 				"/>
				<polygon style="fill:#00FFFF;" points="132.841,226.599 104.708,226.599 108.876,216.723 83.284,216.723 79.108,226.599 
					79.108,251.945 132.841,251.945 132.841,284.135 160.216,284.135 160.216,251.945 173.395,251.945 173.395,226.599 
					160.216,226.599 160.216,216.723 132.841,216.723 				"/>
				<rect x="132.841" y="206.762" style="fill:#00FFFF;" width="27.374" height="5.534"/>
				<rect x="196.46" y="206.762" style="fill:#00FFFF;" width="27.88" height="5.534"/>
				<rect x="253.235" y="206.762" style="fill:#00FFFF;" width="27.88" height="5.534"/>
				<path style="fill:#00FFFF;" d="M253.235,243.328c0,12.673-5.576,17.489-14.448,17.489c-8.87,0-14.447-4.816-14.447-17.489
					v-26.605h-27.88v24.83c0,28.387,14.954,44.609,42.327,44.609c27.374,0,42.328-16.221,42.328-44.609v-24.83h-27.88V243.328z"/>
				<rect x="358.927" y="206.762" style="fill:#00FFFF;" width="27.374" height="5.534"/>
				<path style="fill:#00FFFF;" d="M134.745,216.723h27.374v-4.427h-27.374V216.723z M198.363,216.723h27.88v-4.427h-27.88V216.723z
					 M85.188,216.723h25.592l1.868-4.427H87.06L85.188,216.723z M360.83,212.296v4.427h27.375v-4.427H360.83z M311.273,216.723
					h25.592l1.868-4.427h-25.588L311.273,216.723z M255.138,216.723h27.88v-4.427h-27.88V216.723z"/>
				<polygon style="fill:#00FFFF;" points="358.927,226.599 330.793,226.599 334.961,216.723 309.37,216.723 305.194,226.599 
					305.194,251.945 358.927,251.945 358.927,284.135 386.301,284.135 386.301,251.945 399.48,251.945 399.48,226.599 
					386.301,226.599 386.301,216.723 358.927,216.723 				"/>
				<polygon style="fill:#00FFFF;" points="313.582,206.762 311.242,212.296 336.83,212.296 339.166,206.762 				"/>
				<path style="fill:#00FFFF;" d="M84.243,206.762h25.584l8.642-20.476H92.901L84.243,206.762z M129.588,206.762h27.375v-20.476
					h-27.375V206.762z M193.207,206.762h27.88v-20.476h-27.88V206.762z M355.673,186.286v20.476h27.375v-20.476H355.673z
					 M310.329,206.762h25.584l8.642-20.476h-25.568L310.329,206.762z M249.982,206.762h27.88v-20.476h-27.88V206.762z"/>
				<g>
					<polygon style="fill:#00FFFF;" points="160.216,106.713 129.8,106.713 122.305,124.438 160.216,124.438 					"/>
					<polygon style="fill:#00FFFF;" points="118.796,124.438 112.809,138.597 156.706,138.597 156.706,124.438 					"/>
					<polygon style="fill:#00FFFF;" points="96.154,186.286 121.722,186.286 132.841,159.939 132.841,186.286 160.216,186.286 
						160.216,138.597 116.318,138.597 					"/>
					<path style="fill:#00FFFF;" d="M198.18,124.438c-2.116,4.125-3.595,8.861-4.429,14.159h28.383
						c2.133-6.07,6.785-8.566,13.144-8.566c6.36,0,11.012,2.495,13.144,8.566h28.382c-0.834-5.298-2.314-10.035-4.429-14.159H198.18
						z"/>
					<path style="fill:#00FFFF;" d="M196.46,149.293v36.992h27.88V147.52c0-3.588,0.461-6.526,1.304-8.923h-28.383
						C196.734,141.942,196.46,145.506,196.46,149.293z"/>
					<path style="fill:#00FFFF;" d="M253.235,147.52v38.766h27.88v-36.992c0-3.788-0.275-7.352-0.801-10.697h-28.382
						C252.773,140.994,253.235,143.932,253.235,147.52z"/>
					<path style="fill:#00FFFF;" d="M238.787,104.684c-17.936,0-30.538,6.965-37.097,19.753h74.195
						C269.326,111.65,256.723,104.684,238.787,104.684z"/>
					<polygon style="fill:#00FFFF;" points="322.24,186.286 347.807,186.286 358.927,159.939 358.927,186.286 386.301,186.286 
						386.301,138.597 342.404,138.597 					"/>
					<polygon style="fill:#00FFFF;" points="344.881,124.438 338.894,138.597 382.791,138.597 382.791,124.438 					"/>
					<polygon style="fill:#00FFFF;" points="386.301,106.713 355.885,106.713 348.391,124.438 386.301,124.438 					"/>
				</g>
			</g>
			<g style="opacity:0.8;">
				<polygon points="111.693,326.122 125.766,326.122 125.766,318.715 103.545,318.715 103.545,329.767 111.693,329.767 				"/>
				<polygon points="103.545,370.563 125.766,370.563 125.766,363.156 111.693,363.156 111.693,356.672 103.545,356.672 				"/>
				<polygon points="111.207,348.724 122.391,348.724 122.391,341.318 111.207,341.318 111.207,334.421 103.059,334.421 
					103.059,353.521 111.207,353.521 				"/>
				<path d="M153.051,345.984c3.629-1.703,5.332-5.185,5.332-10.517v-1.046h-8.147v2.897c0,4.148-1.852,5.481-4.889,5.481h-3.184
					v-8.378h-8.147v19.101h8.147v-3.315h2.815c2.694,0,4.286,0.948,4.956,3.315h8.289
					C157.692,349.921,156.183,347.294,153.051,345.984z"/>
				<path d="M142.65,326.122h3.925c2.399,0,3.659,1.144,4.023,3.644h8.246c-0.264-7.404-3.921-11.051-12.047-11.051h-12.294v11.051
					h8.147V326.122z"/>
				<path d="M150.797,364.193c0,4.222,0.297,5.037,0.741,6.37h8.296c-0.814-1.926-0.888-3.777-0.888-6.296v-7.596h-8.148V364.193z"
					/>
				<rect x="134.503" y="356.672" width="8.147" height="13.892"/>
				<path d="M176.125,326.122h3.925c2.399,0,3.659,1.144,4.023,3.644h8.247c-0.264-7.404-3.921-11.051-12.047-11.051h-12.294v11.051
					h8.147V326.122z"/>
				<path d="M186.527,345.984c3.629-1.703,5.332-5.185,5.332-10.517v-1.046h-8.147v2.897c0,4.148-1.852,5.481-4.889,5.481h-3.184
					v-8.378h-8.147v19.101h8.147v-3.315h2.815c2.694,0,4.286,0.948,4.956,3.315h8.289
					C191.167,349.921,189.659,347.294,186.527,345.984z"/>
				<path d="M184.272,364.193c0,4.222,0.297,5.037,0.741,6.37h8.296c-0.814-1.926-0.888-3.777-0.888-6.296v-7.596h-8.148V364.193z"
					/>
				<rect x="167.978" y="356.672" width="8.147" height="13.892"/>
				<rect x="216.891" y="334.421" width="8.147" height="19.101"/>
				<path d="M217.378,358.638c0,3.704-1.63,5.111-4.222,5.111c-2.592,0-4.222-1.407-4.222-5.111v-1.966h-8.147v1.448
					c0,8.296,4.369,13.036,12.369,13.036s12.369-4.74,12.369-13.036v-1.448h-8.147V358.638z"/>
				<rect x="200.3" y="334.421" width="8.147" height="19.101"/>
				<path d="M213.156,325.53c2.372,0,3.921,1.201,4.171,4.237h8.151c-0.472-7.429-4.783-11.643-12.322-11.643
					s-11.851,4.214-12.322,11.643h8.151C209.234,326.73,210.784,325.53,213.156,325.53z"/>
				<path d="M253.033,345.984c3.629-1.703,5.332-5.185,5.332-10.517v-1.046h-8.147v2.897c0,4.148-1.852,5.481-4.889,5.481h-3.185
					v-8.378h-8.147v19.101h8.147v-3.315h2.815c2.694,0,4.286,0.948,4.956,3.315h8.29
					C257.673,349.921,256.164,347.294,253.033,345.984z"/>
				<rect x="234.484" y="356.672" width="8.147" height="13.892"/>
				<path d="M250.778,364.193c0,4.222,0.297,5.037,0.74,6.37h8.296c-0.814-1.926-0.888-3.777-0.888-6.296v-7.596h-8.148V364.193z"/>
				<path d="M242.631,326.122h3.925c2.399,0,3.659,1.144,4.023,3.644h8.246c-0.264-7.404-3.921-11.051-12.047-11.051h-12.294v11.051
					h8.147V326.122z"/>
				<g>
					<rect x="104.433" y="352.769" width="8.148" height="3.902"/>
					<rect x="102.947" y="329.767" width="8.148" height="3.902"/>
					<rect x="135.391" y="352.769" width="8.147" height="3.902"/>
					<rect x="133.905" y="329.767" width="8.147" height="3.902"/>
					<path d="M150.125,331.455v2.214h8.147v-3.028c0-0.301-0.015-0.585-0.026-0.874H150
						C150.074,330.278,150.125,330.826,150.125,331.455z"/>
					<path d="M159.598,352.769h-8.29c0.251,0.886,0.377,1.965,0.377,3.277v0.626h8.148v-0.404
						C159.833,355.018,159.758,353.852,159.598,352.769z"/>
					<rect x="168.866" y="352.769" width="8.147" height="3.902"/>
					<path d="M193.073,352.769h-8.29c0.251,0.886,0.376,1.965,0.376,3.277v0.626h8.148v-0.404
						C193.308,355.018,193.233,353.852,193.073,352.769z"/>
					<rect x="167.38" y="329.767" width="8.147" height="3.902"/>
					<path d="M183.6,331.455v2.214h8.147v-3.028c0-0.301-0.016-0.585-0.026-0.874h-8.246
						C183.549,330.278,183.6,330.826,183.6,331.455z"/>
					<rect x="201.675" y="352.769" width="8.147" height="3.902"/>
					<rect x="218.266" y="352.769" width="8.147" height="3.902"/>
					<path d="M216.779,330.64v3.028h8.147v-2.509c0-0.477-0.018-0.939-0.047-1.393h-8.151
						C216.751,330.049,216.779,330.325,216.779,330.64z"/>
					<path d="M200.188,333.669h8.147v-3.028c0-0.315,0.028-0.591,0.051-0.874h-8.151c-0.029,0.453-0.047,0.916-0.047,1.393V333.669z
						"/>
					<path d="M250.106,331.455v2.214h8.147v-3.028c0-0.301-0.015-0.585-0.026-0.874h-8.246
						C250.055,330.278,250.106,330.826,250.106,331.455z"/>
					<rect x="233.886" y="329.767" width="8.147" height="3.902"/>
					<rect x="235.372" y="352.769" width="8.147" height="3.902"/>
					<path d="M259.579,352.769h-8.29c0.251,0.886,0.376,1.965,0.376,3.277v0.626h8.148v-0.404
						C259.814,355.018,259.739,353.852,259.579,352.769z"/>
				</g>
				<rect x="282.135" y="329.767" width="8.148" height="3.902"/>
				<path d="M291.288,326.122h3.851c2.276,0,3.637,0.916,3.936,3.644h8.139c-0.546-7.167-4.526-11.051-12.075-11.051H283.14v11.051
					h8.148V326.122z"/>
				<path d="M294.653,351.835c8.148,0,12.147-4.518,12.147-12.814v-4.601h-8.147v5.119c0,3.703-1.407,4.888-4,4.888h-3.851v-10.008
					h-8.148v19.101h8.148v-1.686H294.653z"/>
				<rect x="283.14" y="356.672" width="8.148" height="13.892"/>
				<rect x="283.979" y="352.769" width="8.148" height="3.902"/>
				<path d="M298.135,331.011v2.658h8.147v-2.139c0-0.61-0.029-1.194-0.072-1.763h-8.139
					C298.112,330.146,298.135,330.558,298.135,331.011z"/>
				<polygon points="312.023,370.563 319.505,370.563 320.912,361.157 330.911,361.157 332.318,370.563 340.54,370.563 
					338.317,356.672 314.246,356.672 				"/>
				<polygon points="324.006,333.669 324.591,329.767 317.546,329.767 316.922,333.669 				"/>
				<polygon points="317.44,334.421 314.384,353.521 321.664,353.521 324.524,334.421 				"/>
				<polygon points="325.734,333.669 333.633,333.669 333.008,329.767 325.15,329.767 				"/>
				<polygon points="325.875,327.9 326.154,329.767 334.013,329.767 332.244,318.715 320.319,318.715 318.551,329.767 
					325.595,329.767 				"/>
				<polygon points="330.436,352.769 330.638,354.12 322.787,354.12 322.989,352.769 315.709,352.769 315.085,356.672 
					339.156,356.672 338.532,352.769 				"/>
				<polygon points="326.252,334.421 329.111,353.521 337.207,353.521 334.15,334.421 				"/>
				<rect x="346.865" y="334.421" width="8.147" height="19.101"/>
				<path d="M346.347,333.669h8.147v-3.028c0-0.315,0.028-0.591,0.051-0.874h-8.153c-0.027,0.453-0.045,0.916-0.045,1.393V333.669z"
					/>
				<path d="M363.943,358.638c0,3.704-1.63,5.037-4.222,5.037c-2.592,0-4.222-1.333-4.222-5.037v-1.966h-8.147v1.448
					c0,8.296,4.147,13.036,12.147,13.036s12.147-4.74,12.147-13.036v-1.448h-7.702V358.638z"/>
				<rect x="364.781" y="352.769" width="7.702" height="3.902"/>
				<rect x="363.456" y="334.421" width="7.702" height="2.527"/>
				<rect x="348.19" y="352.769" width="8.147" height="3.902"/>
				<path d="M362.938,330.64v3.028h7.703v-2.509c0-0.477-0.017-0.939-0.045-1.393h-7.709
					C362.91,330.049,362.938,330.325,362.938,330.64z"/>
				<polygon points="359.752,342.428 359.752,349.836 363.456,349.836 363.456,353.521 371.159,353.521 371.159,342.428 				"/>
				<path d="M359.721,325.53c2.372,0,3.921,1.201,4.171,4.237h7.709c-0.449-7.429-4.563-11.643-12.102-11.643
					c-7.54,0-11.654,4.214-12.102,11.643h8.154C355.799,326.73,357.349,325.53,359.721,325.53z"/>
				<polygon points="380.603,370.563 402.824,370.563 402.824,363.156 388.751,363.156 388.751,356.672 380.603,356.672 				"/>
				<rect x="379.599" y="329.767" width="8.148" height="3.902"/>
				<polygon points="388.751,326.122 402.824,326.122 402.824,318.715 380.603,318.715 380.603,329.767 388.751,329.767 				"/>
				<polygon points="380.117,353.521 388.265,353.521 388.265,348.724 399.449,348.724 399.449,341.318 388.265,341.318 
					388.265,334.421 380.117,334.421 				"/>
				<rect x="381.442" y="352.769" width="8.148" height="3.902"/>
				<polygon points="118.551,206.762 92.968,206.762 90.628,212.296 116.216,212.296 				"/>
				<polygon points="138.313,226.599 110.179,226.599 114.347,216.723 88.756,216.723 84.58,226.599 84.58,251.945 138.313,251.945 
					138.313,284.135 165.687,284.135 165.687,251.945 178.866,251.945 178.866,226.599 165.687,226.599 165.687,216.723 
					138.313,216.723 				"/>
				<rect x="138.313" y="206.762" width="27.374" height="5.534"/>
				<rect x="201.931" y="206.762" width="27.88" height="5.534"/>
				<rect x="258.706" y="206.762" width="27.88" height="5.534"/>
				<path d="M258.706,243.328c0,12.673-5.576,17.489-14.448,17.489c-8.871,0-14.448-4.816-14.448-17.489v-26.605h-27.88v24.83
					c0,28.387,14.954,44.609,42.327,44.609s42.327-16.221,42.327-44.609v-24.83h-27.88V243.328z"/>
				<rect x="364.398" y="206.762" width="27.374" height="5.534"/>
				<path d="M140.216,216.723h27.375v-4.427h-27.375V216.723z M203.835,216.723h27.88v-4.427h-27.88V216.723z M90.659,216.723
					h25.592l1.868-4.427H92.531L90.659,216.723z M366.301,212.296v4.427h27.375v-4.427H366.301z M316.745,216.723h25.592
					l1.868-4.427h-25.588L316.745,216.723z M260.61,216.723h27.88v-4.427h-27.88V216.723z"/>
				<polygon points="364.398,226.599 336.265,226.599 340.433,216.723 314.841,216.723 310.665,226.599 310.665,251.945 
					364.398,251.945 364.398,284.135 391.772,284.135 391.772,251.945 404.951,251.945 404.951,226.599 391.772,226.599 
					391.772,216.723 364.398,216.723 				"/>
				<polygon points="319.053,206.762 316.713,212.296 342.301,212.296 344.637,206.762 				"/>
				<path d="M89.385,207.927h25.584l8.642-20.476H98.043L89.385,207.927z M134.73,207.927h27.374v-20.476H134.73V207.927z
					 M198.348,207.927h27.88v-20.476h-27.88V207.927z M360.815,187.451v20.476h27.374v-20.476H360.815z M315.47,207.927h25.584
					l8.642-20.476h-25.568L315.47,207.927z M255.123,207.927h27.88v-20.476h-27.88V207.927z"/>
				<g>
					<polygon points="165.687,106.713 135.271,106.713 127.777,124.438 165.687,124.438 					"/>
					<polygon points="124.267,124.438 118.28,138.597 162.177,138.597 162.177,124.438 					"/>
					<polygon points="101.626,186.286 127.193,186.286 138.313,159.939 138.313,186.286 165.687,186.286 165.687,138.597 
						121.79,138.597 					"/>
					<path d="M203.651,124.438c-2.116,4.125-3.595,8.861-4.429,14.159h28.383c2.133-6.07,6.785-8.566,13.144-8.566
						c6.36,0,11.012,2.495,13.144,8.566h28.382c-0.834-5.298-2.313-10.035-4.429-14.159H203.651z"/>
					<path d="M201.931,149.293v36.992h27.88V147.52c0-3.588,0.461-6.526,1.304-8.923h-28.383
						C202.206,141.942,201.931,145.506,201.931,149.293z"/>
					<path d="M258.706,147.52v38.766h27.88v-36.992c0-3.788-0.275-7.352-0.801-10.697h-28.382
						C258.245,140.994,258.706,143.932,258.706,147.52z"/>
					<path d="M244.259,104.684c-17.936,0-30.538,6.965-37.097,19.753h74.195C274.797,111.65,262.194,104.684,244.259,104.684z"/>
					<polygon points="327.711,186.286 353.279,186.286 364.398,159.939 364.398,186.286 391.772,186.286 391.772,138.597 
						347.875,138.597 					"/>
					<polygon points="350.352,124.438 344.365,138.597 388.263,138.597 388.263,124.438 					"/>
					<polygon points="391.772,106.713 361.357,106.713 353.862,124.438 391.772,124.438 					"/>
				</g>
			</g>
		</g>
		<rect x="306.8" y="262.646" style="fill:#00FFFF;" width="72.799" height="5.829"/>
		<rect x="345.808" y="266.16" style="fill:#FF00FF;" width="20.964" height="8.465"/>
		<rect x="143.031" y="191.298" style="fill:#00FFFF;" width="72.799" height="5.829"/>
		<rect x="182.039" y="194.812" style="fill:#FF00FF;" width="20.964" height="8.464"/>
		<rect x="63.491" y="249.06" style="fill:#00FFFF;" width="39.916" height="3.196"/>
		<rect x="84.879" y="250.987" style="fill:#FF00FF;" width="11.494" height="4.641"/>
		<rect x="263.066" y="340.161" style="fill:#FF00FF;" width="56.556" height="4.028"/>
		<rect x="265.725" y="336.91" style="fill:#00FFFF;" width="56.556" height="4.028"/>
		<rect x="82.803" y="361.438" style="fill:#FF00FF;" width="56.556" height="4.028"/>
		<rect x="85.463" y="358.187" style="fill:#00FFFF;" width="56.556" height="4.028"/>
		<rect x="185.18" y="381.064" style="fill:#00FFFF;" width="81.895" height="5.584"/>
		<rect x="203.172" y="383.546" style="fill:#FF00FF;" width="81.895" height="5.584"/>
		<rect x="406.403" y="152.989" style="fill:#00FFFF;" width="25.753" height="5.584"/>
		<rect x="421.526" y="155.631" style="fill:#FF00FF;" width="25.753" height="5.584"/>
		<g>
			
				<rect x="202.097" y="78.58" transform="matrix(-1 -1.224647e-16 1.224647e-16 -1 538.0008 160.8032)" style="fill:#00FFFF;" width="133.806" height="3.643"/>
			
				<rect x="192.129" y="80.187" transform="matrix(-1 -1.224647e-16 1.224647e-16 -1 400.2993 165.958)" style="fill:#FF00FF;" width="16.04" height="5.584"/>
		</g>
		<g>
			
				<rect x="60.416" y="159.352" transform="matrix(-1 -1.224647e-16 1.224647e-16 -1 235.4022 322.3461)" style="fill:#FF00FF;" width="114.569" height="3.642"/>
			
				<rect x="50.448" y="160.959" transform="matrix(-1 -1.224647e-16 1.224647e-16 -1 116.9372 327.5009)" style="fill:#00FFFF;" width="16.04" height="5.584"/>
		</g>
	</g>
</g>
<g id="Designed_by_Freepik">
	<g>
		<g id="XMLID_57_">
			<g id="XMLID_76_">
				<path id="XMLID_84_" style="fill:#1C1C1B;" d="M260.104,465.465c-0.432,0.443-0.803,0.931-1.108,1.453l-0.465-0.241
					c-0.067-0.298-0.349-0.503-0.659-0.466c-0.331,0.039-0.568,0.339-0.529,0.67c0.039,0.331,0.339,0.568,0.67,0.529
					c0.065-0.008,0.127-0.026,0.184-0.052l0.452,0.234c-0.251,0.554-0.433,1.139-0.539,1.744l0.747,0.132
					c0.23-1.306,0.85-2.507,1.792-3.473L260.104,465.465z"/>
				<path id="XMLID_83_" style="fill:#1C1C1B;" d="M265.592,463.163c-0.171,0-0.341,0.006-0.51,0.017l-0.074-0.626
					c0.188-0.149,0.296-0.389,0.266-0.645c-0.046-0.393-0.402-0.674-0.795-0.628c-0.393,0.046-0.674,0.402-0.628,0.795
					c0.03,0.254,0.189,0.461,0.405,0.564l0.073,0.624c-0.714,0.116-1.403,0.332-2.06,0.646l0.327,0.684
					c0.934-0.447,1.942-0.673,2.995-0.673c0.496,0,0.993,0.053,1.475,0.158l0.161-0.741
					C266.692,463.222,266.142,463.163,265.592,463.163z"/>
				<path id="XMLID_82_" style="fill:#1C1C1B;" d="M272.194,465.711c0.331-0.04,0.566-0.341,0.526-0.672
					c-0.04-0.331-0.341-0.566-0.672-0.526c-0.309,0.038-0.535,0.304-0.53,0.609l-0.416,0.363c-0.418-0.43-0.89-0.813-1.408-1.139
					l-0.404,0.641c1.134,0.715,2.021,1.726,2.563,2.925l0.69-0.313c-0.251-0.554-0.567-1.072-0.942-1.545l0.402-0.351
					C272.065,465.716,272.129,465.719,272.194,465.711z"/>
				<path id="XMLID_81_" style="fill:#1C1C1B;" d="M265.044,473.372c-0.386,0.023-0.775,0.035-1.157,0.035
					c-0.88,0-1.733-0.061-2.478-0.179c-0.39-0.062-0.846-0.155-1.27-0.292c1.046,1.861,3.069,3.125,5.388,3.125
					c2.855,0,5.262-1.916,5.95-4.504c-0.682,0.449-1.505,0.825-2.459,1.123C267.839,473.047,266.463,473.286,265.044,473.372z"/>
				<path id="XMLID_77_" style="fill:#1C1C1B;" d="M265.592,464.68c-3.352,0-6.08,2.666-6.08,5.943c0,0.426,0.046,0.849,0.137,1.261
					c0.673,0.483,2.706,0.89,5.348,0.731c2.879-0.173,5.297-0.957,6.672-2.159c-0.005-0.195-0.021-0.39-0.045-0.582
					C271.244,466.913,268.65,464.68,265.592,464.68z M263.432,471.194c-1.02,0-1.85-0.83-1.85-1.85c0-1.02,0.83-1.85,1.85-1.85
					c1.02,0,1.85,0.83,1.85,1.85C265.282,470.365,264.452,471.194,263.432,471.194z M268.17,470.286c-0.75,0-1.36-0.61-1.36-1.36
					s0.61-1.361,1.36-1.361c0.75,0,1.361,0.61,1.361,1.361S268.92,470.286,268.17,470.286z"/>
			</g>
			<path id="XMLID_74_" style="fill:#1C1C1B;" d="M281.595,466.547c-0.295-0.116-0.805-0.309-1.382-0.237
				c-0.551,0.069-0.844,0.341-0.844,1.007v0.866h2.228v1.717h-2.228v5.455h-1.932v-5.455h-1.34v-1.717h1.34v-0.888
				c0-1.68,0.896-2.783,2.568-2.783c0.643,0,1.157,0.122,1.59,0.308L281.595,466.547z"/>
			<path id="XMLID_72_" style="fill:#1C1C1B;" d="M286.298,469.879c-0.177-0.03-0.358-0.046-0.526-0.046
				c-0.895,0-1.51,0.548-1.51,1.614v3.908h-1.932v-7.172h1.873v0.785c0.451-0.673,1.14-0.977,2.021-0.977
				c0.414,0,0.848,0.128,1.094,0.337L286.298,469.879z"/>
			<path id="XMLID_69_" style="fill:#1C1C1B;" d="M293.965,471.757c0,0.222-0.015,0.489-0.037,0.651h-5.085
				c0.207,1.036,0.933,1.488,1.843,1.488c0.622,0,1.295-0.252,1.813-0.688l1.133,1.243c-0.814,0.748-1.85,1.088-3.057,1.088
				c-2.198,0-3.723-1.495-3.723-3.753c0-2.258,1.48-3.797,3.627-3.797C292.544,467.99,293.958,469.522,293.965,471.757z
				 M288.851,471.091h3.175c-0.177-0.918-0.733-1.436-1.562-1.436C289.554,469.655,289.021,470.203,288.851,471.091z"/>
			<path id="XMLID_66_" style="fill:#1C1C1B;" d="M301.618,471.757c0,0.222-0.015,0.489-0.037,0.651h-5.085
				c0.207,1.036,0.932,1.488,1.843,1.488c0.622,0,1.295-0.252,1.813-0.688l1.132,1.243c-0.814,0.748-1.85,1.088-3.057,1.088
				c-2.198,0-3.723-1.495-3.723-3.753c0-2.258,1.48-3.797,3.627-3.797C300.197,467.99,301.611,469.522,301.618,471.757z
				 M296.504,471.091h3.175c-0.178-0.918-0.733-1.436-1.562-1.436C297.207,469.655,296.674,470.203,296.504,471.091z"/>
			<path id="XMLID_63_" style="fill:#1C1C1B;" d="M309.964,471.764c0,2.154-1.495,3.775-3.471,3.775
				c-0.962,0-1.643-0.378-2.109-0.933v3.708h-1.924v-10.133h1.887v0.792c0.466-0.585,1.155-0.984,2.139-0.984
				C308.469,467.99,309.964,469.61,309.964,471.764z M304.287,471.764c0,1.132,0.747,1.976,1.843,1.976
				c1.14,0,1.85-0.881,1.85-1.976c0-1.095-0.711-1.976-1.85-1.976C305.035,469.788,304.287,470.632,304.287,471.764z"/>
			<path id="XMLID_60_" style="fill:#1C1C1B;" d="M313.068,465.836c0,0.696-0.54,1.229-1.236,1.229
				c-0.696,0-1.229-0.533-1.229-1.229c0-0.696,0.533-1.243,1.229-1.243C312.527,464.592,313.068,465.14,313.068,465.836z
				 M312.809,475.354h-1.932v-7.172h1.932V475.354z"/>
			<path id="XMLID_58_" style="fill:#1C1C1B;" d="M316.032,470.736l2.701-2.554h2.368l-3.479,3.375l3.501,3.797h-2.376l-2.716-2.901
				v2.901H314.1v-10.658h1.932V470.736z"/>
		</g>
		<g>
			<path style="fill:#1C1C1B;" d="M184.412,475.289v-1.055c-0.527,0.718-1.391,1.23-2.387,1.23c-1.846,0-3.149-1.406-3.149-3.706
				c0-2.256,1.289-3.721,3.149-3.721c0.952,0,1.816,0.469,2.387,1.245v-3.765h1.099v9.77H184.412z M184.412,473.37v-3.208
				c-0.395-0.615-1.245-1.143-2.124-1.143c-1.421,0-2.27,1.172-2.27,2.739c0,1.567,0.85,2.724,2.27,2.724
				C183.168,474.483,184.017,473.986,184.412,473.37z"/>
			<path style="fill:#1C1C1B;" d="M186.932,471.744c0-2.051,1.465-3.706,3.486-3.706c2.139,0,3.398,1.67,3.398,3.794v0.279h-5.727
				c0.088,1.333,1.025,2.446,2.549,2.446c0.806,0,1.626-0.322,2.182-0.894l0.527,0.718c-0.703,0.703-1.655,1.084-2.812,1.084
				C188.44,475.465,186.932,473.956,186.932,471.744z M190.403,468.947c-1.509,0-2.256,1.274-2.314,2.358h4.643
				C192.718,470.25,192.015,468.947,190.403,468.947z"/>
			<path style="fill:#1C1C1B;" d="M194.607,474.351l0.571-0.791c0.469,0.542,1.362,1.011,2.329,1.011c1.084,0,1.67-0.513,1.67-1.216
				c0-1.714-4.38-0.659-4.38-3.281c0-1.098,0.952-2.036,2.636-2.036c1.201,0,2.051,0.454,2.622,1.026l-0.513,0.762
				c-0.424-0.513-1.201-0.894-2.109-0.894c-0.967,0-1.567,0.483-1.567,1.113c0,1.552,4.38,0.527,4.38,3.281
				c0,1.187-0.952,2.138-2.783,2.138C196.306,475.465,195.325,475.113,194.607,474.351z"/>
			<path style="fill:#1C1C1B;" d="M201.477,466.471c0-0.41,0.337-0.747,0.732-0.747c0.41,0,0.747,0.337,0.747,0.747
				c0,0.41-0.337,0.732-0.747,0.732C201.814,467.203,201.477,466.881,201.477,466.471z M201.667,475.289v-7.075h1.099v7.075H201.667
				z"/>
			<path style="fill:#1C1C1B;" d="M204.582,477.105l0.556-0.82c0.586,0.703,1.289,0.967,2.3,0.967c1.172,0,2.27-0.571,2.27-2.124
				v-1.011c-0.513,0.718-1.377,1.26-2.373,1.26c-1.845,0-3.149-1.377-3.149-3.662c0-2.27,1.289-3.677,3.149-3.677
				c0.952,0,1.802,0.469,2.373,1.245v-1.069h1.099v6.87c0,2.344-1.641,3.076-3.369,3.076
				C206.237,478.16,205.417,477.926,204.582,477.105z M209.709,473.253v-3.091c-0.381-0.615-1.23-1.143-2.109-1.143
				c-1.421,0-2.27,1.128-2.27,2.695c0,1.553,0.849,2.695,2.27,2.695C208.478,474.41,209.328,473.868,209.709,473.253z"/>
			<path style="fill:#1C1C1B;" d="M217.413,475.289v-4.629c0-1.245-0.63-1.641-1.582-1.641c-0.865,0-1.685,0.527-2.095,1.099v5.17
				h-1.099v-7.075h1.099v1.025c0.498-0.586,1.464-1.201,2.519-1.201c1.48,0,2.256,0.747,2.256,2.285v4.966H217.413z"/>
			<path style="fill:#1C1C1B;" d="M219.932,471.744c0-2.051,1.465-3.706,3.486-3.706c2.139,0,3.398,1.67,3.398,3.794v0.279h-5.727
				c0.088,1.333,1.025,2.446,2.549,2.446c0.806,0,1.626-0.322,2.183-0.894l0.527,0.718c-0.703,0.703-1.655,1.084-2.812,1.084
				C221.441,475.465,219.932,473.956,219.932,471.744z M223.404,468.947c-1.509,0-2.256,1.274-2.314,2.358h4.643
				C225.718,470.25,225.015,468.947,223.404,468.947z"/>
			<path style="fill:#1C1C1B;" d="M233.35,475.289v-1.055c-0.527,0.718-1.392,1.23-2.388,1.23c-1.846,0-3.149-1.406-3.149-3.706
				c0-2.256,1.289-3.721,3.149-3.721c0.952,0,1.817,0.469,2.388,1.245v-3.765h1.098v9.77H233.35z M233.35,473.37v-3.208
				c-0.396-0.615-1.245-1.143-2.124-1.143c-1.421,0-2.27,1.172-2.27,2.739c0,1.567,0.849,2.724,2.27,2.724
				C232.105,474.483,232.954,473.986,233.35,473.37z"/>
			<path style="fill:#1C1C1B;" d="M239.692,475.289v-9.77h1.098v3.765c0.572-0.776,1.421-1.245,2.388-1.245
				c1.845,0,3.149,1.465,3.149,3.721c0,2.299-1.304,3.706-3.149,3.706c-0.996,0-1.86-0.513-2.388-1.23v1.055H239.692z
				 M242.9,474.483c1.436,0,2.286-1.157,2.286-2.724c0-1.568-0.85-2.739-2.286-2.739c-0.864,0-1.728,0.527-2.109,1.143v3.208
				C241.171,473.986,242.036,474.483,242.9,474.483z"/>
			<path style="fill:#1C1C1B;" d="M247.528,477.061c0.161,0.073,0.425,0.117,0.601,0.117c0.483,0,0.805-0.161,1.055-0.747
				l0.469-1.069l-2.959-7.148h1.187l2.358,5.8l2.344-5.8h1.201l-3.545,8.51c-0.425,1.025-1.143,1.421-2.08,1.435
				c-0.234,0-0.601-0.044-0.805-0.103L247.528,477.061z"/>
		</g>
	</g>
</g>
</svg>
